<svg width="89" height="84" fill="none" xmlns="http://www.w3.org/2000/svg"><g opacity=".15" filter="url(#5find40rua)"><ellipse rx="21.5" ry="24.5" transform="matrix(0 1 1 0 44.5 43.126)" fill="url(#jumtgpf6ub)"/></g><path d="M30.468 0l20.66 6.774 2.71 10.837-1.355 1.694.967 5.825 1.403.271 4.42 16.594-19.321-4.401L30.469 0z" fill="url(#r30s3mei0c)"/><path opacity=".705" d="M30.468 0l20.66 6.774 2.71 10.837-1.355 1.694.967 5.825 1.403.271 4.42 16.594-19.321-4.401L30.469 0z" fill="url(#9kushq4fvd)"/><path d="M30.53 0l-4.403 7.112 3.387 15.24-1.693 5.758 5.418 16.257 6.774-6.773L30.53 0z" fill="url(#pv10jti0he)"/><g filter="url(#7w7jzvys0f)"><path d="M40.013 37.594l-6.773 6.773 18.966 1.355 4.144-4.395-16.337-3.733z" fill="url(#xlenp85h8g)"/></g><path d="M56.35 41.327l2.29 10.491 3.387 2.71-2.755-12.533-2.922-.668z" fill="url(#wue2zfjvih)"/><g filter="url(#3tc9krpnxi)"><path d="M58.604 51.513l-2.673 3.015h6.096l-3.423-3.015z" fill="url(#pygi6khttj)"/></g><path d="M52.175 45.752l4.175-4.425 2.254 10.186-2.673 3.015-1.694-7.113h-1.354l-.708-1.663z" fill="url(#yn7ac6g7bk)"/><path d="M42.742 16.698l11.103.918-1.335 1.837-9.768-2.755zm-6.68 5.176l18.785 3.507.084.334-18.869-3.674v-.167z" fill="#213045"/><path d="M36.062 22.041v-.167l-8.265 6.178 8.265-6.011z" fill="#151F2D"/><path d="M56.35 41.243l2.839.418.083.334-2.922-.668v-.084z" fill="#213045"/><g filter="url(#kte6zcgiol)"><path d="M37.315 17.45l.835-3.09.668 1.503-.668 1.586.668 1.586v1.92l-1.503-3.506z" fill="url(#lsd7q4spem)"/></g><defs><radialGradient id="jumtgpf6ub" cx="0" cy="0" r="1" gradientUnits="userSpaceOnUse" gradientTransform="matrix(24.03385 -.52128 .5873 27.07763 21.74 24.5)"><stop stop-color="#21C8F6"/><stop offset="1" stop-color="#4BDEFF" stop-opacity="0"/></radialGradient><radialGradient id="9kushq4fvd" cx="0" cy="0" r="1" gradientUnits="userSpaceOnUse" gradientTransform="matrix(-44.4842 3.42678 -3.40507 -44.20234 79.938 18.626)"><stop stop-color="#25C2F2" stop-opacity=".626"/><stop offset="1" stop-color="#293F64"/></radialGradient><radialGradient id="xlenp85h8g" cx="0" cy="0" r="1" gradientUnits="userSpaceOnUse" gradientTransform="matrix(15.9844 0 0 5.55978 44.924 41.658)"><stop stop-color="#21C8F6"/><stop offset="1" stop-color="#4BDEFF"/></radialGradient><radialGradient id="pygi6khttj" cx="0" cy="0" r="1" gradientUnits="userSpaceOnUse" gradientTransform="matrix(4.21644 0 0 2.06229 59.013 53.02)"><stop stop-color="#21C8F6"/><stop offset="1" stop-color="#4BDEFF"/></radialGradient><radialGradient id="lsd7q4spem" cx="0" cy="0" r="1" gradientUnits="userSpaceOnUse" gradientTransform="matrix(1.0394 0 0 4.51139 38.075 17.658)"><stop stop-color="#21C8F6"/><stop offset="1" stop-color="#4BDEFF"/></radialGradient><linearGradient id="r30s3mei0c" x1="55.322" y1="19.024" x2="24.196" y2="24.002" gradientUnits="userSpaceOnUse"><stop stop-color="#365A8A"/><stop offset="1" stop-color="#20314E"/></linearGradient><linearGradient id="pv10jti0he" x1="39.168" y1="32.663" x2="23.915" y2="30.581" gradientUnits="userSpaceOnUse"><stop stop-color="#1D2D4A"/><stop offset="1" stop-color="#213558"/></linearGradient><linearGradient id="wue2zfjvih" x1="59.541" y1="49.891" x2="55.123" y2="45.141" gradientUnits="userSpaceOnUse"><stop stop-color="#365A8A"/><stop offset="1" stop-color="#2E4469"/></linearGradient><linearGradient id="yn7ac6g7bk" x1="58.213" y1="51.045" x2="51.33" y2="49.583" gradientUnits="userSpaceOnUse"><stop stop-color="#1D2D4A"/><stop offset="1" stop-color="#213558"/></linearGradient><filter id="5find40rua" x=".746" y="2.373" width="87.507" height="81.507" filterUnits="userSpaceOnUse" color-interpolation-filters="sRGB"><feFlood flood-opacity="0" result="BackgroundImageFix"/><feColorMatrix in="SourceAlpha" values="0 0 0 0 0 0 0 0 0 0 0 0 0 0 0 0 0 0 127 0" result="hardAlpha"/><feOffset/><feGaussianBlur stdDeviation="9.627"/><feColorMatrix values="0 0 0 0 0.137255 0 0 0 0 0.788235 0 0 0 0 0.968627 0 0 0 1 0"/><feBlend in2="BackgroundImageFix" result="effect1_dropShadow_4247_50397"/><feBlend in="SourceGraphic" in2="effect1_dropShadow_4247_50397" result="shape"/></filter><filter id="7w7jzvys0f" x="30.401" y="34.755" width="28.788" height="13.806" filterUnits="userSpaceOnUse" color-interpolation-filters="sRGB"><feFlood flood-opacity="0" result="BackgroundImageFix"/><feColorMatrix in="SourceAlpha" values="0 0 0 0 0 0 0 0 0 0 0 0 0 0 0 0 0 0 127 0" result="hardAlpha"/><feOffset/><feGaussianBlur stdDeviation="1.419"/><feColorMatrix values="0 0 0 0 0.137255 0 0 0 0 0.788235 0 0 0 0 0.968627 0 0 0 1 0"/><feBlend in2="BackgroundImageFix" result="effect1_dropShadow_4247_50397"/><feBlend in="SourceGraphic" in2="effect1_dropShadow_4247_50397" result="shape"/></filter><filter id="3tc9krpnxi" x="53.093" y="48.674" width="11.773" height="8.692" filterUnits="userSpaceOnUse" color-interpolation-filters="sRGB"><feFlood flood-opacity="0" result="BackgroundImageFix"/><feColorMatrix in="SourceAlpha" values="0 0 0 0 0 0 0 0 0 0 0 0 0 0 0 0 0 0 127 0" result="hardAlpha"/><feOffset/><feGaussianBlur stdDeviation="1.419"/><feColorMatrix values="0 0 0 0 0.137255 0 0 0 0 0.788235 0 0 0 0 0.968627 0 0 0 1 0"/><feBlend in2="BackgroundImageFix" result="effect1_dropShadow_4247_50397"/><feBlend in="SourceGraphic" in2="effect1_dropShadow_4247_50397" result="shape"/></filter><filter id="kte6zcgiol" x="34.476" y="11.521" width="7.18" height="12.273" filterUnits="userSpaceOnUse" color-interpolation-filters="sRGB"><feFlood flood-opacity="0" result="BackgroundImageFix"/><feColorMatrix in="SourceAlpha" values="0 0 0 0 0 0 0 0 0 0 0 0 0 0 0 0 0 0 127 0" result="hardAlpha"/><feOffset/><feGaussianBlur stdDeviation="1.419"/><feColorMatrix values="0 0 0 0 0.137255 0 0 0 0 0.788235 0 0 0 0 0.968627 0 0 0 1 0"/><feBlend in2="BackgroundImageFix" result="effect1_dropShadow_4247_50397"/><feBlend in="SourceGraphic" in2="effect1_dropShadow_4247_50397" result="shape"/></filter></defs></svg>